# xmcd
#
# Track frame offsets: 
#        150
#        13147
#        25737
#        38426
#        48687
#        63950
#        76838
#        93469
#        104219
#        119434
#        130166
#        141653
#        154772
#        168814
#        180908
#        190744
#        203123
#        213990
#        225396
#        236843
#
# Disc length: 3345 seconds
#
# Revision: 0
# Processed by: cddbd v1.5.2PL0 Copyright (c) Steve Scherf et al.
# Submitted via: ExactAudioCopyFreeDBPlugin 1.0
#
DISCID=0d0d0f14
DTITLE=Earl Gaines - The Lost Soul Tapes
DYEAR=2005
DGENRE=Blues,Soul,R&B,Nashville
TTITLE0=Keep Your Mind On Me
TTITLE1=I Can't Face It
TTITLE2=I'll Take Care Of You
TTITLE3=If You Want What I Got
TTITLE4=That's How Strong My Love Is
TTITLE5=Soul Children
TTITLE6=Nine Pound Steel
TTITLE7=Certain Girl
TTITLE8=Hymn#5
TTITLE9=Hello My Lover
TTITLE10=Been So Long
TTITLE11=It Takes You
TTITLE12=Lovin' Her Was Easier
TTITLE13=Taking All The Love I Can
TTITLE14=Since I Lost You
TTITLE15=Trust Me
TTITLE16=Yearning And Burning
TTITLE17=You're The One Pt.1
TTITLE18=You're The One Pt.2
TTITLE19=Turn On YOur Love Light
EXTD=
EXTT0=
EXTT1=
EXTT2=
EXTT3=
EXTT4=
EXTT5=
EXTT6=
EXTT7=
EXTT8=
EXTT9=
EXTT10=
EXTT11=
EXTT12=
EXTT13=
EXTT14=
EXTT15=
EXTT16=
EXTT17=
EXTT18=
EXTT19=
PLAYORDER=
